<?xml version="1.0" encoding="UTF-8"?>
<!DOCTYPE svg PUBLIC "-//W3C//DTD SVG 1.1//EN" "http://www.w3.org/Graphics/SVG/1.1/DTD/svg11.dtd">
<svg xmlns="http://www.w3.org/2000/svg" version="1.1" width="1000px" height="1000px" style="shape-rendering:geometricPrecision; text-rendering:geometricPrecision; image-rendering:optimizeQuality; fill-rule:evenodd; clip-rule:evenodd" xmlns:xlink="http://www.w3.org/1999/xlink">
<g><path style="opacity:0.826" fill="#31583a" d="M 101.5,368.5 C 105.167,368.5 108.833,368.5 112.5,368.5C 112.5,445.5 112.5,522.5 112.5,599.5C 194.581,599.594 276.581,599.761 358.5,600C 359.456,603.394 359.789,606.894 359.5,610.5C 273.5,610.5 187.5,610.5 101.5,610.5C 101.5,529.833 101.5,449.167 101.5,368.5 Z M 295.5,604.5 C 293.712,604.785 292.045,604.452 290.5,603.5C 290.808,602.692 291.308,602.025 292,601.5C 293.145,602.636 294.312,603.636 295.5,604.5 Z"/></g>
<g><path style="opacity:0.759" fill="#31583a" d="M 121.5,368.5 C 125.167,368.5 128.833,368.5 132.5,368.5C 132.831,376.528 132.498,384.528 131.5,392.5C 129.104,390.156 127.104,390.656 125.5,394C 127.473,394.495 129.473,394.662 131.5,394.5C 131.579,395.93 131.246,397.264 130.5,398.5C 127.258,399.52 124.425,401.187 122,403.5C 121.5,391.838 121.333,380.171 121.5,368.5 Z"/></g>
<g><path style="opacity:0.617" fill="#31583a" d="M 141.5,368.5 C 145.167,368.5 148.833,368.5 152.5,368.5C 152.826,372.884 152.492,377.217 151.5,381.5C 150.019,380.52 148.685,379.353 147.5,378C 145.299,377.175 143.466,377.675 142,379.5C 140.181,375.941 140.014,372.274 141.5,368.5 Z"/></g>
<g><path style="opacity:0.695" fill="#31583a" d="M 161.5,368.5 C 165.167,368.5 168.833,368.5 172.5,368.5C 172.5,375.167 172.5,381.833 172.5,388.5C 170.549,388.773 169.049,388.107 168,386.5C 167.692,387.308 167.192,387.975 166.5,388.5C 164.578,387.289 162.745,385.956 161,384.5C 160.219,379.083 160.385,373.75 161.5,368.5 Z"/></g>
<g><path style="opacity:0.72" fill="#31583a" d="M 181.5,368.5 C 185.106,368.211 188.606,368.544 192,369.5C 192.5,377.493 192.666,385.493 192.5,393.5C 190.712,393.785 189.045,393.452 187.5,392.5C 186.359,391.575 186.359,390.741 187.5,390C 185.385,389.443 183.385,388.609 181.5,387.5C 180.21,381.112 180.21,374.778 181.5,368.5 Z"/></g>
<g><path style="opacity:0.735" fill="#31583a" d="M 200.5,368.5 C 204.437,368.207 208.27,368.54 212,369.5C 212.667,377.833 212.667,386.167 212,394.5C 211.5,395 211,395.5 210.5,396C 207.34,394.948 204.007,394.114 200.5,393.5C 200.5,385.167 200.5,376.833 200.5,368.5 Z"/></g>
<g><path style="opacity:0.733" fill="#31583a" d="M 220.5,368.5 C 224.437,368.207 228.27,368.54 232,369.5C 232.833,381.847 232.666,394.18 231.5,406.5C 230.035,405.391 229.035,405.891 228.5,408C 228.477,410.432 228.81,412.932 229.5,415.5C 228.167,417.167 226.833,418.833 225.5,420.5C 227.007,423.825 226.007,426.159 222.5,427.5C 221.914,427.291 221.414,426.957 221,426.5C 220.5,407.17 220.333,387.836 220.5,368.5 Z M 224.5,389.5 C 225.325,391.125 224.992,392.792 223.5,394.5C 223.167,394.333 222.833,394.167 222.5,394C 223.267,392.53 223.933,391.03 224.5,389.5 Z"/></g>
<g><path style="opacity:0.794" fill="#31583a" d="M 240.5,368.5 C 244.437,368.207 248.27,368.54 252,369.5C 252.168,402.815 252.001,435.982 251.5,469C 287.498,469.5 323.498,469.667 359.5,469.5C 359.789,473.106 359.456,476.606 358.5,480C 319.168,480.5 279.835,480.667 240.5,480.5C 240.333,465.163 240.5,449.83 241,434.5C 243,433.5 243,432.5 241,431.5C 240.503,429.19 240.337,426.857 240.5,424.5C 242.5,424.167 244.5,423.833 246.5,423.5C 245.965,420.762 246.965,418.928 249.5,418C 247.335,415.567 245.168,413.067 243,410.5C 242.692,411.308 242.192,411.975 241.5,412.5C 240.501,397.848 240.167,383.182 240.5,368.5 Z"/></g>
<g><path style="opacity:0.841" fill="#31583a" d="M 260.5,368.5 C 264.167,368.5 267.833,368.5 271.5,368.5C 271.5,395.833 271.5,423.167 271.5,450.5C 300.833,450.5 330.167,450.5 359.5,450.5C 359.5,454.167 359.5,457.833 359.5,461.5C 326.5,461.5 293.5,461.5 260.5,461.5C 260.5,430.5 260.5,399.5 260.5,368.5 Z"/></g>
<g><path style="opacity:0.849" fill="#31583a" d="M 280.5,368.5 C 284.167,368.5 287.833,368.5 291.5,368.5C 291.5,389.5 291.5,410.5 291.5,431.5C 313.833,431.5 336.167,431.5 358.5,431.5C 358.5,435.167 358.5,438.833 358.5,442.5C 332.5,442.5 306.5,442.5 280.5,442.5C 280.5,417.833 280.5,393.167 280.5,368.5 Z"/></g>
<g><path style="opacity:0.842" fill="#31583a" d="M 300.5,368.5 C 304.167,368.5 307.833,368.5 311.5,368.5C 311.333,383.504 311.5,398.504 312,413.5C 327.426,412.343 342.926,412.176 358.5,413C 359.456,416.394 359.789,419.894 359.5,423.5C 339.833,423.5 320.167,423.5 300.5,423.5C 300.5,405.167 300.5,386.833 300.5,368.5 Z"/></g>
<g><path style="opacity:0.79" fill="#31583a" d="M 320.5,368.5 C 324.167,368.5 327.833,368.5 331.5,368.5C 331.5,377.167 331.5,385.833 331.5,394.5C 340.833,394.5 350.167,394.5 359.5,394.5C 359.5,398.167 359.5,401.833 359.5,405.5C 346.496,405.667 333.496,405.5 320.5,405C 319.176,392.833 319.176,380.667 320.5,368.5 Z"/></g>
<g><path style="opacity:0.764" fill="#31583a" d="M 340.5,368.5 C 344.167,368.5 347.833,368.5 351.5,368.5C 351.5,370.833 351.5,373.167 351.5,375.5C 353.833,375.5 356.167,375.5 358.5,375.5C 358.5,379.167 358.5,382.833 358.5,386.5C 352.167,386.5 345.833,386.5 339.5,386.5C 339.211,380.409 339.545,374.409 340.5,368.5 Z"/></g>
<g><path style="opacity:0.867" fill="#31583a" d="M 617.5,393.5 C 635.755,390.452 648.089,397.452 654.5,414.5C 649.934,416.142 645.268,417.475 640.5,418.5C 638.106,414.268 634.772,410.768 630.5,408C 618.237,405.261 611.071,410.094 609,422.5C 607.989,430 608.655,437.333 611,444.5C 615.255,451.54 621.422,454.04 629.5,452C 635.088,449.242 638.088,444.742 638.5,438.5C 644.151,439.244 649.484,440.911 654.5,443.5C 648.808,461.688 636.474,469.188 617.5,466C 600.217,460.635 591.883,448.802 592.5,430.5C 591.876,411.838 600.209,399.505 617.5,393.5 Z"/></g>
<g><path style="opacity:0.88" fill="#31583a" d="M 687.5,393.5 C 714.285,391.124 728.618,403.291 730.5,430C 728.783,456.386 714.783,468.386 688.5,466C 674.887,463.721 666.387,455.887 663,442.5C 660.496,431.561 661.329,420.894 665.5,410.5C 670.3,401.446 677.633,395.78 687.5,393.5 Z M 689.5,407.5 C 706.12,405.615 714.454,413.115 714.5,430C 713.018,450.065 703.018,456.399 684.5,449C 676.208,437.777 675.375,425.944 682,413.5C 684.114,410.879 686.614,408.879 689.5,407.5 Z"/></g>
<g><path style="opacity:0.879" fill="#31583a" d="M 388.5,394.5 C 401.837,394.333 415.171,394.5 428.5,395C 441.989,398.47 446.822,406.97 443,420.5C 441.357,422.977 439.524,425.31 437.5,427.5C 449.423,435.954 451.256,446.287 443,458.5C 440.592,460.956 437.759,462.789 434.5,464C 419.21,465.399 403.877,465.899 388.5,465.5C 388.5,441.833 388.5,418.167 388.5,394.5 Z M 403.5,408.5 C 411.045,407.173 418.712,407.34 426.5,409C 430.815,414.009 430.148,418.009 424.5,421C 417.842,421.5 411.175,421.666 404.5,421.5C 404.818,416.968 404.485,412.634 403.5,408.5 Z M 403.5,436.5 C 410.321,435.345 417.321,435.179 424.5,436C 431.611,438.12 433.444,442.62 430,449.5C 429.25,450.126 428.416,450.626 427.5,451C 419.841,451.5 412.174,451.666 404.5,451.5C 404.821,446.305 404.487,441.305 403.5,436.5 Z"/></g>
<g><path style="opacity:0.885" fill="#31583a" d="M 474.5,394.5 C 480.206,394.171 485.872,394.505 491.5,395.5C 500.833,418.5 510.167,441.5 519.5,464.5C 513.863,465.663 508.196,465.83 502.5,465C 500.647,460.125 498.647,455.291 496.5,450.5C 487.853,449.335 479.186,449.168 470.5,450C 468.407,454.776 466.407,459.609 464.5,464.5C 459.208,465.495 453.875,465.828 448.5,465.5C 456.878,441.74 465.545,418.074 474.5,394.5 Z M 482.5,414.5 C 485.772,421.461 488.772,428.628 491.5,436C 486.177,436.499 480.844,436.666 475.5,436.5C 477.833,429.167 480.167,421.833 482.5,414.5 Z"/></g>
<g><path style="opacity:0.891" fill="#31583a" d="M 525.5,394.5 C 530.762,394.195 535.928,394.529 541,395.5C 549.918,409.667 558.585,424 567,438.5C 567.5,423.837 567.667,409.17 567.5,394.5C 572.167,394.5 576.833,394.5 581.5,394.5C 581.5,418.167 581.5,441.833 581.5,465.5C 576.489,465.666 571.489,465.499 566.5,465C 557.624,451.417 549.124,437.584 541,423.5C 540.667,437.167 540.333,450.833 540,464.5C 535.263,465.469 530.43,465.803 525.5,465.5C 525.5,441.833 525.5,418.167 525.5,394.5 Z"/></g>
<g><path style="opacity:0.491" fill="#31583a" d="M 210.5,402.5 C 211.117,402.611 211.617,402.944 212,403.5C 212.499,408.155 212.666,412.821 212.5,417.5C 208.833,417.205 206.5,415.205 205.5,411.5C 206.784,408.234 208.45,405.234 210.5,402.5 Z"/></g>
<g><path style="opacity:0.843" fill="#31583a" d="M 121.5,406.5 C 122.833,406.5 124.167,406.5 125.5,406.5C 125.5,407.833 125.5,409.167 125.5,410.5C 127.929,410.884 130.263,411.551 132.5,412.5C 132.5,468.833 132.5,525.167 132.5,581.5C 181.505,581.167 230.505,581.5 279.5,582.5C 279.18,585.715 279.18,589.048 279.5,592.5C 226.833,592.5 174.167,592.5 121.5,592.5C 121.5,530.5 121.5,468.5 121.5,406.5 Z"/></g>
<g><path style="opacity:0.812" fill="#31583a" d="M 141.5,406.5 C 145.169,406.332 148.502,407.332 151.5,409.5C 152.5,460.496 152.833,511.496 152.5,562.5C 193.833,562.5 235.167,562.5 276.5,562.5C 275.551,565.872 275.551,569.205 276.5,572.5C 231.266,573.83 186.099,573.83 141,572.5C 140.171,517.096 140.338,461.763 141.5,406.5 Z"/></g>
<g><path style="opacity:0.794" fill="#31583a" d="M 160.5,424.5 C 161.496,424.414 162.329,424.748 163,425.5C 164.267,428.275 165.767,430.941 167.5,433.5C 161.656,443.21 163.156,451.21 172,457.5C 172.5,486.165 172.667,514.831 172.5,543.5C 206.833,543.5 241.167,543.5 275.5,543.5C 275.026,546.921 275.026,550.255 275.5,553.5C 237.172,554.5 198.839,554.833 160.5,554.5C 160.5,511.167 160.5,467.833 160.5,424.5 Z"/></g>
<g><path style="opacity:0.721" fill="#31583a" d="M 242.5,490.5 C 245.762,492.828 249.095,495.161 252.5,497.5C 241.854,498.499 231.187,498.832 220.5,498.5C 220.177,494.774 220.511,491.107 221.5,487.5C 223.813,490.332 226.813,491.499 230.5,491C 225.865,489.144 224.198,485.644 225.5,480.5C 223.799,480.034 222.299,480.034 221,480.5C 220.333,471.167 220.333,461.833 221,452.5C 224.877,450.243 226.377,446.91 225.5,442.5C 227.833,441.833 230.167,441.167 232.5,440.5C 232.5,456.167 232.5,471.833 232.5,487.5C 234.924,487.192 237.257,487.526 239.5,488.5C 238.975,489.192 238.308,489.692 237.5,490C 239.134,490.494 240.801,490.66 242.5,490.5 Z"/></g>
<g><path style="opacity:0.725" fill="#31583a" d="M 209.5,456.5 C 210.5,456.5 211.5,456.5 212.5,456.5C 212.827,461.214 212.493,465.88 211.5,470.5C 210.342,473.171 208.509,475.171 206,476.5C 204.237,476.025 202.57,475.358 201,474.5C 200.171,469.467 200.338,464.467 201.5,459.5C 203.776,458.787 206.109,458.287 208.5,458C 209.056,457.617 209.389,457.117 209.5,456.5 Z"/></g>
<g><path style="opacity:0.789" fill="#31583a" d="M 180.5,464.5 C 184.783,467.115 188.45,470.448 191.5,474.5C 192.499,491.487 192.833,508.487 192.5,525.5C 215.502,525.333 238.502,525.5 261.5,526C 262.833,527.333 264.167,528.667 265.5,530C 269.005,530.657 272.005,532.157 274.5,534.5C 274.291,535.086 273.957,535.586 273.5,536C 242.833,536.667 212.167,536.667 181.5,536C 180.839,525.574 180.506,515.074 180.5,504.5C 180.523,493.675 181.19,483.008 182.5,472.5C 180.945,470.057 180.278,467.39 180.5,464.5 Z"/></g>
<g><path style="opacity:0.796" fill="#31583a" d="M 200.5,478.5 C 203.463,478.953 205.796,480.453 207.5,483C 209.134,483.494 210.801,483.66 212.5,483.5C 212.5,491.167 212.5,498.833 212.5,506.5C 225.167,506.5 237.833,506.5 250.5,506.5C 250.02,510.306 251.02,513.639 253.5,516.5C 235.846,517.5 218.179,517.833 200.5,517.5C 200.5,504.5 200.5,491.5 200.5,478.5 Z"/></g>
<g><path style="opacity:0.919" fill="#31583a" d="M 744.5,485.5 C 758.87,483.807 772.204,486.64 784.5,494C 793.181,501.864 797.515,511.697 797.5,523.5C 789.817,524.097 782.15,524.764 774.5,525.5C 772.775,521.171 770.942,516.838 769,512.5C 759.517,506.448 749.684,505.948 739.5,511C 735.5,516 735.5,521 739.5,526C 751.176,530.92 763.176,534.92 775.5,538C 796.47,547.208 804.304,563.041 799,585.5C 794.307,601.19 783.807,610.023 767.5,612C 733.095,617.83 713.429,603.663 708.5,569.5C 716.469,568.533 724.469,567.866 732.5,567.5C 735.451,586.658 746.451,593.825 765.5,589C 776.661,583.74 778.995,576.073 772.5,566C 761.147,561.241 749.48,557.241 737.5,554C 713.619,543.03 707.119,525.53 718,501.5C 724.773,492.699 733.606,487.366 744.5,485.5 Z"/></g>
<g><path style="opacity:0.327" fill="#31583a" d="M 242.5,490.5 C 242.196,489.85 241.863,489.183 241.5,488.5C 245.5,487.167 249.5,487.167 253.5,488.5C 252.203,490.4 250.37,491.4 248,491.5C 246.175,491.057 244.342,490.723 242.5,490.5 Z"/></g>
<g><path style="opacity:0.169" fill="#31583a" d="M 265.5,487.5 C 266.833,487.5 268.167,487.5 269.5,487.5C 269.5,488.5 269.5,489.5 269.5,490.5C 268.167,490.5 266.833,490.5 265.5,490.5C 265.5,489.5 265.5,488.5 265.5,487.5 Z"/></g>
<g><path style="opacity:0.779" fill="#31583a" d="M 283.5,487.5 C 308.502,487.333 333.502,487.5 358.5,488C 359.456,491.394 359.789,494.894 359.5,498.5C 341.497,498.667 323.497,498.5 305.5,498C 298.758,496.561 292.258,494.394 286,491.5C 284.405,490.644 283.572,489.311 283.5,487.5 Z"/></g>
<g><path style="opacity:0.924" fill="#31583a" d="M 385.5,487.5 C 393.5,487.5 401.5,487.5 409.5,487.5C 409.5,521.167 409.5,554.833 409.5,588.5C 428.167,588.5 446.833,588.5 465.5,588.5C 465.5,595.833 465.5,603.167 465.5,610.5C 438.833,610.5 412.167,610.5 385.5,610.5C 385.5,569.5 385.5,528.5 385.5,487.5 Z"/></g>
<g><path style="opacity:0.922" fill="#31583a" d="M 512.5,487.5 C 521.167,487.5 529.833,487.5 538.5,487.5C 552.959,528.208 567.626,568.874 582.5,609.5C 573.853,610.665 565.186,610.832 556.5,610C 553.198,601.26 550.198,592.426 547.5,583.5C 532.833,583.5 518.167,583.5 503.5,583.5C 500.833,592.5 498.167,601.5 495.5,610.5C 486.833,610.5 478.167,610.5 469.5,610.5C 483.632,569.436 497.966,528.436 512.5,487.5 Z M 524.5,519.5 C 529.936,532.806 534.603,546.473 538.5,560.5C 529.494,560.666 520.494,560.5 511.5,560C 516.538,546.719 520.872,533.219 524.5,519.5 Z"/></g>
<g><path style="opacity:0.915" fill="#31583a" d="M 588.5,487.5 C 614.5,487.5 640.5,487.5 666.5,487.5C 666.5,494.833 666.5,502.167 666.5,509.5C 648.5,509.5 630.5,509.5 612.5,509.5C 612.5,518.5 612.5,527.5 612.5,536.5C 628.167,536.5 643.833,536.5 659.5,536.5C 659.814,544.087 659.481,551.587 658.5,559C 643.17,559.5 627.837,559.667 612.5,559.5C 612.5,576.5 612.5,593.5 612.5,610.5C 604.5,610.5 596.5,610.5 588.5,610.5C 588.5,569.5 588.5,528.5 588.5,487.5 Z"/></g>
<g><path style="opacity:0.922" fill="#31583a" d="M 677.5,487.5 C 685.5,487.5 693.5,487.5 701.5,487.5C 701.5,528.5 701.5,569.5 701.5,610.5C 693.5,610.5 685.5,610.5 677.5,610.5C 677.5,569.5 677.5,528.5 677.5,487.5 Z"/></g>
<g><path style="opacity:0.923" fill="#31583a" d="M 808.5,487.5 C 836.5,487.5 864.5,487.5 892.5,487.5C 892.5,494.833 892.5,502.167 892.5,509.5C 872.5,509.5 852.5,509.5 832.5,509.5C 832.334,518.173 832.5,526.84 833,535.5C 851.093,534.341 869.26,534.175 887.5,535C 888.481,542.413 888.814,549.913 888.5,557.5C 869.833,557.5 851.167,557.5 832.5,557.5C 832.5,567.833 832.5,578.167 832.5,588.5C 853.167,588.5 873.833,588.5 894.5,588.5C 894.5,595.833 894.5,603.167 894.5,610.5C 865.833,610.5 837.167,610.5 808.5,610.5C 808.5,569.5 808.5,528.5 808.5,487.5 Z"/></g>
<g><path style="opacity:0.736" fill="#31583a" d="M 319.5,506.5 C 332.5,506.5 345.5,506.5 358.5,506.5C 358.5,510.167 358.5,513.833 358.5,517.5C 352.132,517.83 345.798,517.496 339.5,516.5C 336.868,515.109 334.535,513.276 332.5,511C 328.853,510.226 325.186,509.559 321.5,509C 320.244,508.583 319.577,507.75 319.5,506.5 Z"/></g>
<g><path style="opacity:0.763" fill="#31583a" d="M 332.5,525.5 C 341.5,525.5 350.5,525.5 359.5,525.5C 359.789,529.106 359.456,532.606 358.5,536C 349.506,536.5 340.506,536.666 331.5,536.5C 332.114,532.865 332.448,529.198 332.5,525.5 Z"/></g>
<g><path style="opacity:0.786" fill="#31583a" d="M 317.5,543.5 C 331.171,543.333 344.837,543.5 358.5,544C 359.456,547.394 359.789,550.894 359.5,554.5C 344.833,554.5 330.167,554.5 315.5,554.5C 315.111,550.586 315.778,546.92 317.5,543.5 Z"/></g>
<g><path style="opacity:0.8" fill="#31583a" d="M 300.5,562.5 C 319.833,562.5 339.167,562.5 358.5,562.5C 358.5,566.167 358.5,569.833 358.5,573.5C 337.156,573.833 315.823,573.5 294.5,572.5C 294.833,571.833 295.167,571.167 295.5,570.5C 297.632,569.402 299.798,568.402 302,567.5C 301.866,565.811 301.366,564.144 300.5,562.5 Z"/></g>
<g><path style="opacity:0.805" fill="#31583a" d="M 291.5,581.5 C 314.167,581.5 336.833,581.5 359.5,581.5C 359.789,585.106 359.456,588.606 358.5,592C 336.169,592.5 313.836,592.667 291.5,592.5C 290.479,588.771 290.479,585.104 291.5,581.5 Z"/></g>
<g><path style="opacity:0.805" fill="#31583a" d="M 101.5,621.5 C 366.833,621.5 632.167,621.5 897.5,621.5C 897.5,624.5 897.5,627.5 897.5,630.5C 632.167,630.5 366.833,630.5 101.5,630.5C 101.5,627.5 101.5,624.5 101.5,621.5 Z"/></g>
</svg>
